# xmcd
#
# Track frame offsets: 
#        150
#        14723
#        28007
#        38494
#        45474
#        52896
#        59001
#        68628
#        76774
#        92827
#
# Disc length: 1351 seconds
#
# Revision: 0
# Processed by: cddbd v1.5.2PL0 Copyright (c) Steve Scherf et al.
# Submitted via: ExactAudioCopy v0.99pb1
#
DISCID=7705450a
DTITLE=Minhoco, minhoca - Cantar e Brincar Vol 10
DYEAR=2008
DGENRE=Acid Jazz
TTITLE0=Minhoco, minhoca
TTITLE1=O senhor é o meu pastor
TTITLE2=Borboletinha
TTITLE3=Para eu vou contar-lhe
TTITLE4=História da serpente
TTITLE5=Pirulito que bate bate
TTITLE6=Na mão direita tem uma roseira
TTITLE7=Deus fez o arco-íris
TTITLE8=1.2 feijão com arroz
TTITLE9=Onde vai a morena
EXTD=
EXTT0=
EXTT1=
EXTT2=
EXTT3=
EXTT4=
EXTT5=
EXTT6=
EXTT7=
EXTT8=
EXTT9=
PLAYORDER=
